Coordinates
version=1
nRows=20
nColumns=33
inDegrees=yes

Units are S.I. units (second, meters, Newtons, ...)
Angles are in degrees.

endheader
time	ground_thorax_rot_x	ground_thorax_rot_y	ground_thorax_rot_z	ground_thorax_tx	ground_thorax_ty	ground_thorax_tz	clav_prot_r	clav_elev_r	scapula_abduction_r	scapula_elevation_r	scapula_upward_rot_r	scapula_winging_r	shoulder_elv_r	plane_of_elev_r	axial_rot_r	elbow_flexion_r	pro_sup_r	wrist_flex_r	wrist_dev_r	clav_prot_l	clav_elev_l	scapula_abduction_l	scapula_elevation_l	scapula_upward_rot_l	scapula_winging_l	shoulder_elv_l	plane_of_elev_l	axial_rot_l	elbow_flexion_l	pro_sup_l	wrist_flex_l	wrist_dev_l	
6.3800	-41.131151	-5.448447	5.486438	-165.255265	891.360402	-10.155992	1.900250	-45.000000	42.840136	-45.000000	11.794482	1690.710742	-287.284434	22.646712	-180.000000	723.975078	292.283620	23.960677	9.095016	15.982507	39.183648	-41.495081	-45.000000	-43.153793	-633.136293	-3526.125606	21.617742	-39.740410	13.824771	53.460558	4.412663	-22.118368	
6.3900	-41.195641	-5.112680	5.176365	-162.483002	893.349923	-10.075105	1.730142	-45.000000	43.167910	-45.000000	13.300025	1690.805068	-287.132115	22.693583	-180.000000	723.915796	291.916246	24.072806	9.143976	15.926887	39.345636	-41.761396	-45.000000	-42.437845	-632.950882	-3526.059827	21.703888	-39.341860	13.794577	53.047115	4.439888	-22.122144	
6.4000	-41.258335	-4.781486	4.872012	-159.597981	895.086906	-9.983712	1.560545	-45.000000	43.482086	-45.000000	14.782439	1690.904232	-287.010486	22.736186	-180.000000	723.860385	291.454633	24.173284	9.203740	15.842337	39.514565	-42.012371	-45.000000	-41.650666	-632.785900	-3526.013770	21.770564	-38.986012	13.759189	52.495332	4.493050	-22.138094	
6.4100	-41.320991	-4.459185	4.584045	-156.598155	896.547997	-9.882277	1.377878	-45.000000	43.773638	-45.000000	16.246253	1691.004155	-286.918915	22.770348	-180.000000	723.812630	290.881562	24.255661	9.279372	15.755674	39.692729	-42.262754	-45.000000	-40.828011	-632.636301	-3525.987977	21.825207	-38.652736	13.713855	51.780952	4.574423	-22.166054	
6.4200	-41.377255	-4.151457	4.311089	-153.481832	897.714908	-9.771776	1.173737	-45.000000	44.061331	-45.000000	17.737268	1691.094188	-286.842809	22.791387	-180.000000	723.780537	290.180610	24.302913	9.382097	15.694132	39.886829	-42.514013	-45.000000	-39.985837	-632.505201	-3525.994808	21.873922	-38.335023	13.646079	50.877250	4.685028	-22.200450	
6.4300	-41.431096	-3.850607	4.055780	-150.247701	898.575157	-9.653091	0.917353	-45.000000	44.336563	-45.000000	19.320528	1691.171129	-286.770958	22.778814	-180.000000	723.778150	289.317004	24.290359	9.529766	15.713937	40.108950	-42.785808	-45.000000	-39.138449	-632.393397	-3526.031804	21.911359	-38.027345	13.546438	49.724827	4.826653	-22.237322	
6.4400	-41.479098	-3.557160	3.820915	-146.895893	899.121944	-9.526642	0.613308	-45.000000	44.576941	-45.000000	20.934698	1691.244304	-286.717261	22.742129	-180.000000	723.799240	288.271418	24.225367	9.719441	15.792139	40.352073	-43.071158	-45.000000	-38.286119	-632.303967	-3526.096321	21.942265	-37.734577	13.412524	48.280254	5.011999	-22.281179	
6.4500	-41.523446	-3.250153	3.593892	-143.427666	899.354064	-9.392286	0.239224	-45.000000	44.772143	-45.000000	22.614224	1691.317208	-286.679282	22.670102	-180.000000	723.850563	287.018722	24.097854	9.962356	15.946880	40.606507	-43.383288	-45.000000	-37.444320	-632.253777	-3526.171153	21.954706	-37.431095	13.245931	46.480645	5.247117	-22.331023	
6.4600	-41.558845	-2.946334	3.386298	-139.845768	899.275306	-9.249454	-0.170885	-45.000000	44.905034	-45.000000	24.195243	1691.397231	-286.696628	22.595281	-180.000000	723.916946	285.561727	23.939527	10.235972	16.112207	40.855485	-43.705090	-45.000000	-36.617806	-632.238092	-3526.262637	21.961342	-37.126213	13.044406	44.310192	5.551558	-22.392720	
6.4700	-41.582150	-2.643633	3.200762	-136.154017	898.893597	-9.097455	-0.609596	-45.000000	44.975582	-45.000000	25.661895	1691.485441	-286.769372	22.517215	-180.000000	723.997080	283.904811	23.749249	10.537808	16.279665	41.087453	-44.032918	-45.000000	-35.820182	-632.269505	-3526.362964	21.959532	-36.813113	12.813827	41.767229	5.926514	-22.459996	
6.4800	-41.587748	-2.371542	3.049366	-132.357533	898.219859	-8.935839	-1.025140	-45.000000	45.000000	-45.000000	26.916740	1691.579947	-286.915058	22.457320	-180.000000	724.077663	282.086205	23.547541	10.844269	16.399112	41.296417	-44.330758	-44.999999	-35.051924	-632.341955	-3526.479563	21.967698	-36.503924	12.557887	38.926217	6.373112	-22.528438	
6.4900	-41.574277	-2.117029	2.912233	-128.462315	897.266956	-8.764706	-1.427076	-45.000000	45.000000	-45.000000	28.025085	1691.667910	-287.121727	22.414432	-180.000000	724.164221	280.118435	23.329557	11.156790	16.468674	41.484009	-44.584840	-44.999999	-34.288677	-632.470153	-3526.609110	21.979697	-36.195317	12.282482	35.844660	6.884561	-22.586235	
6.5000	-41.544764	-1.919246	2.814853	-124.475325	896.048896	-8.584769	-1.784189	-45.000000	45.000000	-45.000000	28.962325	1691.746674	-287.385759	22.380883	-180.000000	724.255784	278.041068	23.088862	11.463363	16.499903	41.664029	-44.772405	-44.999997	-33.547479	-632.637348	-3526.757798	22.010440	-35.904459	11.993698	32.642527	7.436896	-22.620720	
6.5100	-41.501165	-1.749846	2.735317	-120.404296	894.580102	-8.397242	-2.120558	-45.000000	45.000000	-45.000000	29.812783	1691.808694	-287.691871	22.350133	-180.000000	724.358272	275.860599	22.819947	11.769634	16.495188	41.834735	-44.898474	-44.999995	-32.805269	-632.854555	-3526.916592	22.048083	-35.638288	11.710830	29.401536	8.011353	-22.622953	
6.5200	-41.446296	-1.625546	2.689809	-116.257785	892.875082	-8.203455	-2.423564	-45.000000	45.000000	-45.000000	30.548772	1691.859615	-288.040311	22.316921	-180.000000	724.468121	273.606165	22.520977	12.065444	16.470906	42.000876	-44.964847	-44.999992	-32.087922	-633.110409	-3527.086006	22.099982	-35.401769	11.441966	26.238403	8.584667	-22.588509	
6.5300	-41.382653	-1.511338	2.649386	-112.044962	890.947946	-8.004466	-2.725483	-45.000000	45.000000	-45.000000	31.241482	1691.890378	-288.422771	22.280829	-180.000000	724.592724	271.273208	22.196256	12.356092	16.426388	42.155970	-44.992806	-44.999985	-31.376231	-633.413635	-3527.263601	22.151038	-35.184118	11.197386	23.203414	9.145995	-22.517044	
6.5400	-41.314635	-1.432420	2.643512	-107.775362	888.812030	-7.800610	-3.014285	-45.000000	45.000000	-45.000000	31.857825	1691.908299	-288.833800	22.229698	-180.000000	724.730800	268.888669	21.838882	12.634055	16.395323	42.310457	-45.000000	-44.999973	-30.714473	-633.744848	-3527.457164	22.207501	-34.977974	10.975686	20.374192	9.675020	-22.410317	
6.5500	-41.241373	-1.352289	2.640496	-103.458632	886.479198	-7.591405	-3.308379	-45.000000	45.000000	-45.000000	32.433358	1691.900926	-289.274067	22.180297	-180.000000	724.885453	266.453662	21.466023	12.899326	16.354076	42.458220	-45.000000	-44.999952	-30.073550	-634.104740	-3527.673300	22.269812	-34.767206	10.777999	17.773632	10.177685	-22.272228	
6.5600	-41.164166	-1.297875	2.667006	-99.104633	883.959769	-7.375633	-3.591479	-45.000000	45.000000	-45.000000	32.930906	1691.879850	-289.737993	22.120222	-180.000000	725.049764	264.004632	21.072147	13.143088	16.333212	42.607143	-45.000000	-44.999914	-29.498359	-634.483581	-3527.915053	22.342796	-34.542139	10.599787	15.443338	10.641856	-22.110988	
6.5700	-41.083828	-1.239404	2.692421	-94.723207	881.262288	-7.151762	-3.881460	-45.000000	45.000000	-45.000000	33.380233	1691.837515	-290.230165	22.063182	-180.000000	725.227759	261.553513	20.673230	13.366414	16.308906	42.748059	-45.000000	-44.999846	-28.958106	-634.887026	-3528.180688	22.428077	-34.276281	10.436502	13.374087	11.077450	-21.929751	
